<svg xmlns="http://www.w3.org/2000/svg" width="479.999" height="171" viewBox="0 0 479.999 171"><path d="M-2002.955,171a13.948,13.948,0,0,1-9.931-4.114,13.946,13.946,0,0,1-4.114-9.931,13.953,13.953,0,0,1,4.114-9.932,13.953,13.953,0,0,1,9.931-4.113h72.973a9.843,9.843,0,0,0,9.832-9.832,9.843,9.843,0,0,0-9.832-9.832h-72.973a13.953,13.953,0,0,1-9.931-4.113A13.95,13.95,0,0,1-2017,109.2a13.95,13.95,0,0,1,4.114-9.931,13.952,13.952,0,0,1,9.931-4.114h90.315a14.23,14.23,0,0,1,2.29-.185h72.973a9.843,9.843,0,0,0,9.832-9.832,9.849,9.849,0,0,0-6.645-9.3h-153.33a13.946,13.946,0,0,1-9.931-4.114,13.948,13.948,0,0,1-4.114-9.931,13.953,13.953,0,0,1,4.114-9.932,13.951,13.951,0,0,1,9.931-4.113h58.7a9.843,9.843,0,0,0,9.832-9.832,9.843,9.843,0,0,0-9.832-9.832h-58.7a13.951,13.951,0,0,1-9.931-4.113,13.953,13.953,0,0,1-4.114-9.931,13.948,13.948,0,0,1,4.114-9.931A13.946,13.946,0,0,1-1987.521,0h302.2a13.948,13.948,0,0,1,9.931,4.114,13.952,13.952,0,0,1,4.114,9.931,13.957,13.957,0,0,1-4.114,9.931,13.953,13.953,0,0,1-9.931,4.113h-105.955a9.842,9.842,0,0,0-9.831,9.832,9.849,9.849,0,0,0,6.644,9.3h243.417a13.953,13.953,0,0,1,9.932,4.114A13.951,13.951,0,0,1-1537,61.267a13.956,13.956,0,0,1-4.113,9.932,13.956,13.956,0,0,1-9.932,4.113h-128.4a9.842,9.842,0,0,0-9.831,9.832,9.843,9.843,0,0,0,9.831,9.832h128.4a13.956,13.956,0,0,1,9.932,4.113,13.956,13.956,0,0,1,4.113,9.932,13.952,13.952,0,0,1-4.113,9.931,13.957,13.957,0,0,1-9.932,4.114h-90.316a14.224,14.224,0,0,1-2.289.185h-128.4a9.843,9.843,0,0,0-9.831,9.832,9.842,9.842,0,0,0,9.831,9.832h128.4a13.956,13.956,0,0,1,9.932,4.113,13.956,13.956,0,0,1,4.113,9.932,13.951,13.951,0,0,1-4.113,9.931A13.953,13.953,0,0,1-1643.65,171Z" transform="translate(2017)" fill="#fff"/></svg>