<svg xmlns="http://www.w3.org/2000/svg" width="190.492" height="180.988" viewBox="0 0 190.492 180.988"><path d="M72.734,163.4A45.667,45.667,0,0,1,49.28,143.861a44.632,44.632,0,0,1-5.508-14.675,45.59,45.59,0,0,1-40.355-28,45.036,45.036,0,0,1,9.25-48.522A45.617,45.617,0,0,1,43.488,38.758,45.457,45.457,0,0,1,72.332,2.974a45.8,45.8,0,0,1,46.293,8.2,45.131,45.131,0,0,1,15.142,27.617A45.622,45.622,0,0,1,164.2,52.859a45.006,45.006,0,0,1-.092,62.309,45.624,45.624,0,0,1-30.621,13.992,44.674,44.674,0,0,1-5.5,14.685A45.875,45.875,0,0,1,72.734,163.4ZM91.317,107.83A25.085,25.085,0,0,0,111.462,92.8a24.494,24.494,0,0,0,1.8-6.72H91.317ZM65.215,92.8a25.1,25.1,0,0,0,19.154,14.894V86.081H63.418A24.494,24.494,0,0,0,65.215,92.8Zm48.045-12.658a24.484,24.484,0,0,0-1.8-6.72A25.1,25.1,0,0,0,91.317,58.392V80.143Zm-28.891,0V58.528a25.09,25.09,0,0,0-19.154,14.9,24.484,24.484,0,0,0-1.8,6.72Zm11.147,13.9a4.228,4.228,0,1,1,4.228,4.215A4.222,4.222,0,0,1,95.516,94.042Zm-23.009,0a4.228,4.228,0,1,1,4.228,4.215A4.222,4.222,0,0,1,72.508,94.042Zm23.009-21.86A4.228,4.228,0,1,1,99.744,76.4,4.222,4.222,0,0,1,95.516,72.182Zm-23.009,0A4.228,4.228,0,1,1,76.736,76.4,4.222,4.222,0,0,1,72.508,72.183Z" transform="matrix(0.996, 0.087, -0.087, 0.996, 14.487, 0)" fill="#730f0e"/></svg>