<svg xmlns="http://www.w3.org/2000/svg" width="206.679" height="136.5" viewBox="0 0 206.679 136.5"><path d="M105.365,187.682q1.521-1.758,3.163-3.4a64.119,64.119,0,0,1,20.343-13.716,63.678,63.678,0,0,1,12.014-3.729,64.613,64.613,0,0,1,25.8,0,63.624,63.624,0,0,1,22.884,9.63,64.483,64.483,0,0,1,9.472,7.815q1.41,1.41,2.734,2.909l-48.488,41.846Zm-27.41-23.655q2.388-2.766,4.971-5.349a99.659,99.659,0,0,1,31.627-21.324,99.043,99.043,0,0,1,18.678-5.8,100.476,100.476,0,0,1,40.106,0,98.956,98.956,0,0,1,35.578,14.971,100.222,100.222,0,0,1,14.726,12.15q2.579,2.579,4.971,5.349l-13.244,11.43q-1.968-2.279-4.1-4.408A82.146,82.146,0,0,0,185.2,153.474,81.583,81.583,0,0,0,169.81,148.7a82.811,82.811,0,0,0-33.053,0,81.553,81.553,0,0,0-29.324,12.339A82.658,82.658,0,0,0,95.3,171.049q-2.126,2.126-4.1,4.408ZM49.944,139.853q3.276-3.794,6.819-7.338a136.7,136.7,0,0,1,43.388-29.253,135.8,135.8,0,0,1,25.623-7.954,137.844,137.844,0,0,1,55.019,0A135.782,135.782,0,0,1,229.6,115.847a137.5,137.5,0,0,1,20.2,16.668q3.538,3.538,6.819,7.338l-18.17,15.681q-2.7-3.127-5.62-6.047a112.682,112.682,0,0,0-35.76-24.11,111.887,111.887,0,0,0-21.117-6.555,113.579,113.579,0,0,0-45.346,0,111.868,111.868,0,0,0-40.227,16.927,113.271,113.271,0,0,0-16.649,13.738q-2.917,2.916-5.62,6.047Z" transform="translate(-49.944 -92.535)" fill="#fff"/></svg>