<svg xmlns="http://www.w3.org/2000/svg" width="186.594" height="203.313" viewBox="0 0 186.594 203.313"><path d="M85.525,171a86.18,86.18,0,0,1-17.236-1.737A85.07,85.07,0,0,1,37.707,156.4,85.753,85.753,0,0,1,6.721,118.78a85.054,85.054,0,0,1-4.983-16.049,86.309,86.309,0,0,1,0-34.462A85.018,85.018,0,0,1,14.606,37.7,85.771,85.771,0,0,1,52.235,6.719,85.115,85.115,0,0,1,68.289,1.737a86.373,86.373,0,0,1,34.966.1,85.1,85.1,0,0,1,31.291,13.59,86.154,86.154,0,0,1,12.811,11c-.879-.039-1.782-.06-2.684-.06a58.883,58.883,0,0,0-33.07,10.1,59.305,59.305,0,0,0-21.43,26.016,59.04,59.04,0,0,0,5.453,56.077,59.319,59.319,0,0,0,26.024,21.423,58.793,58.793,0,0,0,23.023,4.647c.891,0,1.794-.02,2.683-.06a85.714,85.714,0,0,1-27.637,19.322,85.1,85.1,0,0,1-16.465,5.268A86.141,86.141,0,0,1,85.525,171Z" transform="matrix(0.966, -0.259, 0.259, 0.966, 0, 38.139)" fill="#9a7f1c"/></svg>