<svg xmlns="http://www.w3.org/2000/svg" width="120" height="60" viewBox="0 0 120 60"><g transform="translate(3608 -82)"><rect width="120" height="60" transform="translate(-3608 82)" fill="#fff" opacity="0"/><g transform="translate(0 76)"><path d="M-15.264-.64c1.649,2.856-1.92,17.023-.239,20.7s-11.38-.086-6.541-4.925c2.168-2.168,3.31-3.774,3.543-6.8.276-3.591-1.092-6.988-3.543-8.4C-25.426-1.959-16.913-3.5-15.264-.64Z" transform="translate(-3576.204 26.778)" fill="#fff"/><path d="M6.755,15C4.362,11.938,4.174-1.507,5.862-1.054S7.37,4.817,7.548.746,5.183-5.016,2.866-1-.114,9.059.01,15.561,11.543,16.274,6.755,15Z" transform="translate(-3592.169 39.39) rotate(-120)" fill="#fff"/><path d="M7.943.6c1.8,1.567,1.186,23.46-.072,19.807S5.346,5.559,1.1,3.155,6.14-.965,7.943.6Z" transform="matrix(-0.755, 0.656, -0.656, -0.755, -3574.086, 43.036)" fill="#fff"/><path d="M20,4A16,16,0,0,0,8.686,31.314,16,16,0,0,0,31.314,8.686,15.9,15.9,0,0,0,20,4m0-4A20,20,0,1,1,0,20,20,20,0,0,1,20,0Z" transform="translate(-3608 16)" fill="#fff"/><text transform="translate(-3527 50)" fill="#fff" font-size="24" font-family="K2D-Bold, K2D" font-weight="700"><tspan x="-38.952" y="0">.design</tspan></text></g></g></svg>