<svg xmlns="http://www.w3.org/2000/svg" width="160" height="120" viewBox="0 0 160 120"><g transform="translate(-1726.345 -10769.496)"><path d="M2,96.725a2,2,0,0,1-2-2v-55H.055a1.175,1.175,0,0,1,.391-.566L48.623.257a1.146,1.146,0,0,1,1.445,0l48.178,38.9a1.175,1.175,0,0,1,.391.566h.053v.316q0,.039,0,.078V94.725a2,2,0,0,1-2,2Z" transform="translate(1757 10792.771)" fill="#730f0e" opacity="0.753"/><path d="M82.577.963a1.867,1.867,0,0,1,2.342,0l78.108,62.672a1.919,1.919,0,0,1-1.171,3.417H143.7L83.842,19.175l-60.3,47.878H5.64a1.919,1.919,0,0,1-1.171-3.417Z" transform="translate(1722.597 10768.946)" fill="#730f0e" opacity="0.753"/></g></svg>