<svg xmlns="http://www.w3.org/2000/svg" width="480" height="480" viewBox="0 0 480 480"><g transform="translate(-14853 -10124.582)"><rect width="480" height="480" transform="translate(14853 10124.582)" fill="#ba8cae"/><path d="M119.806,60.587A61.409,61.409,0,1,0,181.215,122,61.312,61.312,0,0,0,119.806,60.587Zm0,101.333A39.924,39.924,0,1,1,159.73,122a40,40,0,0,1-39.924,39.924ZM198.05,58.075a14.323,14.323,0,1,1-14.323-14.323A14.29,14.29,0,0,1,198.05,58.075Zm40.672,14.537c-.909-19.187-5.291-36.183-19.347-50.185-14-14-31-18.385-50.185-19.347-19.775-1.122-79.046-1.122-98.821,0C51.236,3.988,34.24,8.371,20.184,22.373S1.8,53.372.836,72.559C-.286,92.333-.286,151.6.836,171.379c.909,19.187,5.291,36.183,19.347,50.185s31,18.385,50.185,19.347c19.775,1.122,79.046,1.122,98.821,0,19.187-.909,36.183-5.291,50.185-19.347,14-14,18.385-31,19.347-50.185,1.122-19.775,1.122-78.992,0-98.767ZM213.175,192.6a40.419,40.419,0,0,1-22.768,22.768c-15.766,6.253-53.178,4.81-70.6,4.81s-54.888,1.39-70.6-4.81A40.419,40.419,0,0,1,26.437,192.6c-6.253-15.766-4.81-53.178-4.81-70.6s-1.39-54.888,4.81-70.6A40.419,40.419,0,0,1,49.2,28.626c15.766-6.253,53.178-4.81,70.6-4.81s54.888-1.39,70.6,4.81a40.419,40.419,0,0,1,22.768,22.768c6.253,15.766,4.81,53.178,4.81,70.6S219.428,176.884,213.175,192.6Z" transform="translate(14973.521 10242.586)" fill="#fff"/></g></svg>